# xmcd
#
# Track frame offsets:
# 150
# 13902
# 23932
# 35142
# 47212
# 56737
# 67235
# 80150
# 91265
# 104187
#
# Disc length: 1530 seconds
#
#
# Revision: 0
# Processed by: cddbd v1.5.1PL0 Copyright (c) Steve Scherf et al.
# Submitted via: FreeRIP 2.60 
#
DISCID=9705f80a
DTITLE=Various Artist - Real 60's Country [CD3]
DYEAR=1900
DGENRE=Country
TTITLE0=Gentle on My Mind - (John Hartford)
TTITLE1=Bring Me Sunshine - (Willie Nelson)
TTITLE2=(That's What You Get) For Lovin' Me - (Waylon Jennings)
TTITLE3=Mama Spank - (Liz Anderson)
TTITLE4=Misty Blue - (Eddy Arnold)
TTITLE5=Pop a Top - (Jim Ed Brown)
TTITLE6=Distant Drums - (Jim Reeves)
TTITLE7=The Ballad of Green Berets - (SSG Barry Sadler)
TTITLE8=Last Train to Clarksville - (Ed Bruce)
TTITLE9=Green, Green Grass of Home - (Porter Wagoner)
EXTD=
EXTT0=
EXTT1=
EXTT2=
EXTT3=
EXTT4=
EXTT5=
EXTT6=
EXTT7=
EXTT8=
EXTT9=
PLAYORDER=
